<svg width="103" height="29" viewBox="0 0 103 29" fill="none" xmlns="http://www.w3.org/2000/svg">
<path d="M31.184 2.512V3.232C30.416 3.256 29.84 3.352 29.456 3.52C29.072 3.664 28.808 3.952 28.664 4.384C28.544 4.792 28.484 5.44 28.484 6.328V24.184C28.484 25.048 28.544 25.696 28.664 26.128C28.808 26.56 29.072 26.848 29.456 26.992C29.84 27.136 30.416 27.232 31.184 27.28V28C30.512 27.952 29.66 27.928 28.628 27.928C27.62 27.904 26.588 27.892 25.532 27.892C24.38 27.892 23.3 27.904 22.292 27.928C21.284 27.928 20.468 27.952 19.844 28V27.28C20.66 27.232 21.272 27.136 21.68 26.992C22.112 26.848 22.4 26.56 22.544 26.128C22.688 25.696 22.76 25.048 22.76 24.184V4.708H23.012L14.084 28.036H13.508L3.788 4.852V22.096C3.788 23.416 3.86 24.436 4.004 25.156C4.148 25.852 4.46 26.356 4.94 26.668C5.444 26.956 6.224 27.16 7.28 27.28V28C6.824 27.952 6.224 27.928 5.48 27.928C4.736 27.904 4.04 27.892 3.392 27.892C2.84 27.892 2.276 27.904 1.7 27.928C1.124 27.928 0.644 27.952 0.26 28V27.28C1.028 27.16 1.604 26.956 1.988 26.668C2.372 26.38 2.624 25.912 2.744 25.264C2.888 24.592 2.96 23.68 2.96 22.528V6.328C2.96 5.44 2.888 4.792 2.744 4.384C2.624 3.952 2.36 3.664 1.952 3.52C1.568 3.352 1.004 3.256 0.26 3.232V2.512C0.644 2.536 1.124 2.56 1.7 2.584C2.276 2.608 2.84 2.62 3.392 2.62C4.424 2.62 5.432 2.608 6.416 2.584C7.424 2.56 8.312 2.536 9.08 2.512L16.64 20.764L15.74 21.592L22.976 2.62C23.384 2.62 23.804 2.62 24.236 2.62C24.668 2.62 25.1 2.62 25.532 2.62C26.588 2.62 27.62 2.608 28.628 2.584C29.66 2.56 30.512 2.536 31.184 2.512ZM37.9073 0.0999987C38.9153 0.0999987 39.7073 0.351999 40.2833 0.856C40.8833 1.336 41.1833 2.008 41.1833 2.872C41.1833 3.736 40.8833 4.42 40.2833 4.924C39.7073 5.404 38.9153 5.644 37.9073 5.644C36.8993 5.644 36.0953 5.404 35.4953 4.924C34.9193 4.42 34.6313 3.736 34.6313 2.872C34.6313 2.008 34.9193 1.336 35.4953 0.856C36.0953 0.351999 36.8993 0.0999987 37.9073 0.0999987ZM40.7153 8.992V24.652C40.7153 25.66 40.8833 26.344 41.2193 26.704C41.5793 27.064 42.1793 27.244 43.0193 27.244V28C42.5873 27.976 41.9153 27.952 41.0033 27.928C40.0913 27.88 39.1673 27.856 38.2313 27.856C37.2953 27.856 36.3473 27.88 35.3873 27.928C34.4273 27.952 33.7073 27.976 33.2273 28V27.244C34.0673 27.244 34.6553 27.064 34.9913 26.704C35.3513 26.344 35.5313 25.66 35.5313 24.652V13.312C35.5313 12.232 35.3633 11.44 35.0273 10.936C34.7153 10.408 34.1153 10.144 33.2273 10.144V9.388C33.9953 9.46 34.7393 9.496 35.4593 9.496C36.4673 9.496 37.4033 9.46 38.2673 9.388C39.1553 9.292 39.9713 9.16 40.7153 8.992ZM54.4828 2.476V3.232C53.4028 3.232 52.7068 3.34 52.3948 3.556C52.1068 3.748 52.1308 4.096 52.4668 4.6L66.7228 25.444C67.2028 26.116 67.5868 26.572 67.8748 26.812C68.1628 27.052 68.5468 27.196 69.0268 27.244V28C68.5468 27.976 67.8508 27.952 66.9388 27.928C66.0268 27.88 65.0788 27.856 64.0948 27.856C63.0148 27.856 61.9108 27.88 60.7828 27.928C59.6788 27.952 58.8508 27.976 58.2988 28V27.244C59.4028 27.244 60.1108 27.172 60.4228 27.028C60.7588 26.86 60.7588 26.524 60.4228 26.02L46.1308 5.032C45.6748 4.336 45.3028 3.868 45.0148 3.628C44.7268 3.388 44.3308 3.256 43.8268 3.232V2.476C44.3308 2.5 45.0628 2.536 46.0228 2.584C47.0068 2.608 47.9908 2.62 48.9748 2.62C50.0548 2.62 51.0868 2.608 52.0708 2.584C53.0788 2.536 53.8828 2.5 54.4828 2.476ZM54.8068 15.184C54.8068 15.184 54.8308 15.268 54.8788 15.436C54.9268 15.58 54.9748 15.736 55.0228 15.904C55.0708 16.048 55.0948 16.12 55.0948 16.12L51.4948 21.052C50.5348 22.348 49.9948 23.452 49.8748 24.364C49.7548 25.252 49.9588 25.948 50.4868 26.452C51.0388 26.932 51.8428 27.208 52.8988 27.28V28C52.5628 27.976 52.1308 27.964 51.6028 27.964C51.0988 27.94 50.5588 27.928 49.9828 27.928C49.4308 27.904 48.9028 27.892 48.3988 27.892C47.9188 27.892 47.5228 27.892 47.2108 27.892C46.5388 27.892 45.9148 27.904 45.3388 27.928C44.7628 27.928 44.2828 27.952 43.8988 28V27.28C44.7388 26.992 45.5908 26.488 46.4548 25.768C47.3188 25.024 48.2068 24.064 49.1188 22.888L54.8068 15.184ZM67.4068 2.512V3.232C66.6148 3.448 65.8228 3.904 65.0308 4.6C64.2628 5.296 63.5428 6.1 62.8708 7.012L57.0388 14.788C57.0388 14.788 56.9908 14.632 56.8948 14.32C56.8228 14.008 56.7868 13.852 56.7868 13.852L60.4948 8.848C61.4068 7.696 61.9468 6.712 62.1148 5.896C62.3068 5.08 62.1748 4.444 61.7188 3.988C61.2628 3.532 60.5428 3.28 59.5588 3.232V2.512C60.0148 2.536 60.5188 2.56 61.0708 2.584C61.6228 2.584 62.1628 2.596 62.6908 2.62C63.2428 2.62 63.7108 2.62 64.0948 2.62C64.7908 2.62 65.4268 2.608 66.0028 2.584C66.5788 2.56 67.0468 2.536 67.4068 2.512ZM74.1534 0.0999987C75.1614 0.0999987 75.9534 0.351999 76.5294 0.856C77.1294 1.336 77.4294 2.008 77.4294 2.872C77.4294 3.736 77.1294 4.42 76.5294 4.924C75.9534 5.404 75.1614 5.644 74.1534 5.644C73.1454 5.644 72.3414 5.404 71.7414 4.924C71.1654 4.42 70.8774 3.736 70.8774 2.872C70.8774 2.008 71.1654 1.336 71.7414 0.856C72.3414 0.351999 73.1454 0.0999987 74.1534 0.0999987ZM76.9614 8.992V24.652C76.9614 25.66 77.1294 26.344 77.4654 26.704C77.8254 27.064 78.4254 27.244 79.2654 27.244V28C78.8334 27.976 78.1614 27.952 77.2494 27.928C76.3374 27.88 75.4134 27.856 74.4774 27.856C73.5414 27.856 72.5934 27.88 71.6334 27.928C70.6734 27.952 69.9534 27.976 69.4734 28V27.244C70.3134 27.244 70.9014 27.064 71.2374 26.704C71.5974 26.344 71.7774 25.66 71.7774 24.652V13.312C71.7774 12.232 71.6094 11.44 71.2734 10.936C70.9614 10.408 70.3614 10.144 69.4734 10.144V9.388C70.2414 9.46 70.9854 9.496 71.7054 9.496C72.7134 9.496 73.6494 9.46 74.5134 9.388C75.4014 9.292 76.2174 9.16 76.9614 8.992ZM102.901 2.512C102.805 3.736 102.733 4.912 102.685 6.04C102.661 7.168 102.649 8.032 102.649 8.632C102.649 9.16 102.661 9.664 102.685 10.144C102.709 10.624 102.733 11.032 102.757 11.368H101.929C101.545 9.352 101.053 7.756 100.453 6.58C99.8771 5.404 99.1811 4.576 98.3651 4.096C97.5491 3.592 96.5891 3.34 95.4851 3.34H94.6571V23.896C94.6571 24.856 94.7531 25.576 94.9451 26.056C95.1611 26.536 95.5451 26.86 96.0971 27.028C96.6491 27.172 97.4531 27.256 98.5091 27.28V28C97.7651 27.976 96.7691 27.952 95.5211 27.928C94.2971 27.904 93.0131 27.892 91.6691 27.892C90.3491 27.892 89.1011 27.904 87.9251 27.928C86.7491 27.952 85.8011 27.976 85.0811 28V27.28C86.1611 27.256 86.9771 27.172 87.5291 27.028C88.0811 26.86 88.4531 26.536 88.6451 26.056C88.8371 25.576 88.9331 24.856 88.9331 23.896V3.34H88.1411C87.0371 3.34 86.0771 3.592 85.2611 4.096C84.4451 4.576 83.7491 5.404 83.1731 6.58C82.5971 7.732 82.0931 9.328 81.6611 11.368H80.8331C80.8811 11.032 80.9051 10.624 80.9051 10.144C80.9291 9.664 80.9411 9.16 80.9411 8.632C80.9411 8.032 80.9171 7.168 80.8691 6.04C80.8451 4.912 80.7851 3.736 80.6891 2.512C81.7931 2.536 82.9931 2.56 84.2891 2.584C85.6091 2.608 86.9291 2.62 88.2491 2.62C89.5691 2.62 90.7571 2.62 91.8131 2.62C92.8931 2.62 94.0811 2.62 95.3771 2.62C96.6971 2.62 98.0171 2.608 99.3371 2.584C100.657 2.56 101.845 2.536 102.901 2.512Z" fill="black"/>
</svg>
